<svg version="1.1" xmlns="http://www.w3.org/2000/svg" viewBox="0 0 658.5998840332031 429.70003204345704" width="658.5998840332031" height="429.70003204345704">
  <!-- svg-source:excalidraw -->
  
  <defs>
    <style class="style-fonts">
      @font-face {
        font-family: "Virgil";
        src: url("https://excalidraw.com/Virgil.woff2");
      }
      @font-face {
        font-family: "Cascadia";
        src: url("https://excalidraw.com/Cascadia.woff2");
      }
      @font-face {
        font-family: "Assistant";
        src: url("https://excalidraw.com/Assistant-Regular.woff2");
      }
    </style>
    
  </defs>
  <rect x="0" y="0" width="658.5998840332031" height="429.70003204345704" fill="#ffffff"></rect><g transform="translate(199.99996948242188 10) rotate(0 143.2291717529297 11.5)"><text x="0" y="18.400390625" font-family="Helvetica, Segoe UI Emoji" font-size="20px" fill="#1e1e1e" text-anchor="start" style="white-space: pre;" direction="ltr" dominant-baseline="alphabetic">Modelo de Dados da API PGD 3</text></g><g stroke-linecap="round" transform="translate(514.1998596191406 91.50002746582032) rotate(0 67.20001220703125 50.800010681152344)"><path d="M6.1 6.63 C6.1 6.63, 6.1 6.63, 6.1 6.63 M6.1 6.63 C6.1 6.63, 6.1 6.63, 6.1 6.63 M3.61 21.69 C9.18 13.91, 16.23 10.47, 18.05 5.09 M3.61 21.69 C8.45 15.6, 12.02 12.31, 18.05 5.09 M3.09 34.49 C8.29 25.45, 14.38 19.92, 29.99 3.54 M3.09 34.49 C13.35 21.83, 23.72 8.87, 29.99 3.54 M3.22 46.53 C16.75 31.34, 27.33 17.78, 40.62 3.51 M3.22 46.53 C15.38 32.38, 27.52 20.36, 40.62 3.51 M3.36 58.57 C21 37.51, 35.39 18.41, 51.25 3.48 M3.36 58.57 C19.13 40.14, 36.75 22.1, 51.25 3.48 M3.49 70.61 C25.33 46.61, 47.16 20.63, 61.88 3.44 M3.49 70.61 C22.24 48.38, 43.27 26.23, 61.88 3.44 M2.31 84.16 C18.1 62.65, 36.91 45.53, 71.85 4.16 M2.31 84.16 C26.07 58.43, 47.33 31.53, 71.85 4.16 M6.38 91.67 C25.18 69.42, 43.94 46.01, 82.48 4.13 M6.38 91.67 C28.72 65.73, 50.29 41.08, 82.48 4.13 M10.45 99.19 C43.63 63.25, 72.35 23.9, 93.11 4.09 M10.45 99.19 C38.78 65.04, 69.2 32.01, 93.11 4.09 M17.8 102.92 C49.12 68.3, 78.79 31.08, 103.74 4.06 M17.8 102.92 C47.27 67.84, 78.54 34.72, 103.74 4.06 M27.77 103.64 C47.72 79.6, 67.26 57.39, 114.37 4.02 M27.77 103.64 C48.91 78.46, 70.68 52.88, 114.37 4.02 M38.4 103.61 C67.56 68.78, 101.27 35.1, 124.35 4.74 M38.4 103.61 C67.21 72.21, 94.69 39.14, 124.35 4.74 M49.03 103.58 C73.4 72.61, 100.92 44.85, 131.04 9.24 M49.03 103.58 C74.64 72.88, 100.35 43.72, 131.04 9.24 M59.66 103.54 C88.74 72.2, 117.44 37.26, 135.11 16.75 M59.66 103.54 C78.76 80.42, 98.72 58.95, 135.11 16.75 M70.29 103.51 C86.65 84.66, 100.36 65.72, 136.56 27.28 M70.29 103.51 C87.86 84.25, 104.7 62.91, 136.56 27.28 M80.92 103.47 C100.76 78.15, 122.68 55.17, 136.69 39.32 M80.92 103.47 C97.26 85.37, 111.49 67.74, 136.69 39.32 M91.55 103.44 C102.49 90.48, 116.63 76.55, 136.17 52.12 M91.55 103.44 C104.11 88.21, 116.41 74.19, 136.17 52.12 M102.18 103.4 C108.72 93.29, 116.53 86.42, 136.3 64.16 M102.18 103.4 C111.74 92.2, 121.36 81.36, 136.3 64.16 M112.16 104.12 C121.61 96.46, 127.22 84.89, 136.43 76.2 M112.16 104.12 C119.62 94.21, 128.57 83.79, 136.43 76.2" stroke="#ffec99" stroke-width="1" fill="none"></path><path d="M25.4 0 C57.98 -0.99, 88.24 0.81, 109 0 M25.4 0 C45.03 -0.55, 66.45 -1.2, 109 0 M109 0 C127.52 -0.61, 134.61 7.34, 134.4 25.4 M109 0 C127.78 -0.46, 132.86 9.98, 134.4 25.4 M134.4 25.4 C135.29 46.25, 132.92 65.79, 134.4 76.2 M134.4 25.4 C133.65 39.36, 133.86 54.98, 134.4 76.2 M134.4 76.2 C132.93 94.3, 127.86 99.66, 109 101.6 M134.4 76.2 C135.31 92.61, 123.76 103.76, 109 101.6 M109 101.6 C89.44 100.83, 66.31 100.66, 25.4 101.6 M109 101.6 C76.41 101.64, 45.34 102.32, 25.4 101.6 M25.4 101.6 C9.14 102.81, -0.14 94.46, 0 76.2 M25.4 101.6 C8.01 103.76, 1.39 92.46, 0 76.2 M0 76.2 C-1.17 57.05, 2.03 39.98, 0 25.4 M0 76.2 C1.35 59.29, 0.95 43.86, 0 25.4 M0 25.4 C-1.16 6.59, 7.12 -0.89, 25.4 0 M0 25.4 C-0.92 6.33, 8.94 -0.24, 25.4 0" stroke="#1e1e1e" stroke-width="2" fill="none"></path></g><g transform="translate(540.0404968261719 133.10003814697262) rotate(0 41.359375 9.199999999999989)"><text x="41.359375" y="14.720312499999999" font-family="Helvetica, Segoe UI Emoji" font-size="16px" fill="#1e1e1e" text-anchor="middle" style="white-space: pre;" direction="ltr" dominant-baseline="alphabetic">participante</text></g><g stroke-linecap="round" transform="translate(13.999969482421875 88.89995269775392) rotate(0 67.20001220703125 51.20001983642578)"><path d="M6.16 6.68 C6.16 6.68, 6.16 6.68, 6.16 6.68 M6.16 6.68 C6.16 6.68, 6.16 6.68, 6.16 6.68 M1.04 24.76 C6.54 19.32, 8.98 13.99, 22.04 0.61 M1.04 24.76 C4.53 20.21, 9.52 15.08, 22.04 0.61 M1.18 36.8 C7.86 25.93, 17.22 19.94, 32.67 0.57 M1.18 36.8 C12.04 25.58, 21.1 12.53, 32.67 0.57 M1.31 48.84 C15.16 31.23, 32.94 13.6, 43.3 0.54 M1.31 48.84 C14.52 32.35, 27.73 17.15, 43.3 0.54 M0.79 61.63 C21.28 39.18, 37.72 20.34, 53.93 0.5 M0.79 61.63 C19.99 39.29, 40.25 16.51, 53.93 0.5 M0.92 73.67 C13.38 56.89, 26.73 41.2, 64.56 0.47 M0.92 73.67 C23.55 49.56, 45.25 23.68, 64.56 0.47 M1.71 84.96 C19.7 62.04, 40.08 36.08, 75.19 0.43 M1.71 84.96 C15.69 67.54, 31.69 49.74, 75.19 0.43 M4.47 93.98 C23.15 71.57, 42.63 52.13, 85.82 0.4 M4.47 93.98 C21.91 72.84, 38.13 53.07, 85.82 0.4 M11.16 98.48 C39.68 65.17, 67.16 34.21, 96.45 0.36 M11.16 98.48 C34.09 70.2, 58.2 43.9, 96.45 0.36 M19.17 101.46 C41.66 73.76, 64.99 47.6, 107.08 0.33 M19.17 101.46 C48.94 64.7, 79.96 30.7, 107.08 0.33 M28.48 102.94 C53.13 73.86, 79.04 47.71, 116.4 1.81 M28.48 102.94 C48.82 78.82, 70.31 54.59, 116.4 1.81 M39.11 102.9 C60.89 77.48, 84.87 52.45, 124.4 4.79 M39.11 102.9 C70.7 64.59, 103.3 29.27, 124.4 4.79 M49.74 102.87 C77.14 75.3, 101.34 45.59, 130.44 10.04 M49.74 102.87 C66.2 83.89, 83.65 63.11, 130.44 10.04 M60.37 102.83 C74.69 86.17, 88.74 66.59, 133.85 18.31 M60.37 102.83 C89.35 69.52, 117.6 35.09, 133.85 18.31 M71 102.8 C90.42 78.9, 112.33 56.44, 135.3 28.84 M71 102.8 C93.78 76.23, 116.54 49.34, 135.3 28.84 M81.63 102.76 C99.51 83.69, 114.72 62.7, 134.77 41.63 M81.63 102.76 C98.31 83.72, 115.94 64.69, 134.77 41.63 M92.26 102.73 C109.76 84.34, 124.18 64.29, 134.91 53.67 M92.26 102.73 C104.6 89.08, 115.45 76.63, 134.91 53.67 M102.89 102.69 C113.02 90.04, 126.17 78.99, 135.04 65.71 M102.89 102.69 C113.4 89.39, 125.12 78.71, 135.04 65.71 M114.18 101.91 C119.99 91.98, 128.28 85.26, 134.52 78.51 M114.18 101.91 C123 91.91, 129.87 83.01, 134.52 78.51" stroke="#ffc9c9" stroke-width="1" fill="none"></path><path d="M25.6 0 C50.89 1.51, 79.19 -0.23, 108.8 0 M25.6 0 C45.08 0.36, 63.59 -1.46, 108.8 0 M108.8 0 C125.74 1.17, 133.72 9.47, 134.4 25.6 M108.8 0 C126.68 -0.34, 132.91 6.42, 134.4 25.6 M134.4 25.6 C133.75 42.22, 132.96 54.18, 134.4 76.8 M134.4 25.6 C134.66 35.9, 134.86 47.81, 134.4 76.8 M134.4 76.8 C135.71 92.58, 125.51 101.48, 108.8 102.4 M134.4 76.8 C136.56 92.45, 126.21 101.83, 108.8 102.4 M108.8 102.4 C86.33 103.59, 62.66 102.38, 25.6 102.4 M108.8 102.4 C82.14 103.77, 56.43 103.64, 25.6 102.4 M25.6 102.4 C6.87 100.62, 1.01 93.2, 0 76.8 M25.6 102.4 C9.01 100.21, -1.5 95.04, 0 76.8 M0 76.8 C-0.38 64.41, 0.45 49.82, 0 25.6 M0 76.8 C-0.36 63.22, -0.8 51.79, 0 25.6 M0 25.6 C1.92 6.96, 8.21 0.75, 25.6 0 M0 25.6 C0.71 6.61, 9.67 -2.1, 25.6 0" stroke="#1e1e1e" stroke-width="2" fill="none"></path></g><g transform="translate(30.481231689453125 130.8999725341797) rotate(0 50.71875 9.200000000000017)"><text x="50.71875" y="14.720312499999999" font-family="Helvetica, Segoe UI Emoji" font-size="16px" fill="#1e1e1e" text-anchor="middle" style="white-space: pre;" direction="ltr" dominant-baseline="alphabetic">plano_entrega</text></g><g stroke-linecap="round" transform="translate(10 317.2999923706055) rotate(0 67.20001220703125 51.20001983642578)"><path d="M6.16 6.68 C6.16 6.68, 6.16 6.68, 6.16 6.68 M6.16 6.68 C6.16 6.68, 6.16 6.68, 6.16 6.68 M1.04 24.76 C6.16 19.5, 13.43 12.06, 22.04 0.61 M1.04 24.76 C6.73 18.46, 10.64 13.84, 22.04 0.61 M1.18 36.8 C11.9 25.47, 22.06 15.46, 32.67 0.57 M1.18 36.8 C12.77 23.67, 24.27 10.1, 32.67 0.57 M1.31 48.84 C10.45 36.97, 20.36 29.47, 43.3 0.54 M1.31 48.84 C15.69 31.82, 31.96 12.45, 43.3 0.54 M0.79 61.63 C21.41 39.71, 39.67 14.49, 53.93 0.5 M0.79 61.63 C20.78 38.93, 40.96 14.97, 53.93 0.5 M0.92 73.67 C12.58 58.05, 27.99 43.89, 64.56 0.47 M0.92 73.67 C23.94 46.68, 48.05 19.43, 64.56 0.47 M1.71 84.96 C29.18 52.79, 59.39 20.8, 75.19 0.43 M1.71 84.96 C24.66 58.88, 47.78 33.37, 75.19 0.43 M4.47 93.98 C33.17 61.18, 61.17 31.3, 85.82 0.4 M4.47 93.98 C24.57 72.1, 44.79 48.72, 85.82 0.4 M11.16 98.48 C44.23 62.62, 73.4 24.57, 96.45 0.36 M11.16 98.48 C33.14 72.84, 56.6 47.43, 96.45 0.36 M19.17 101.46 C46.04 71.89, 73.05 36.59, 107.08 0.33 M19.17 101.46 C47.49 69.81, 73.7 37.76, 107.08 0.33 M28.48 102.94 C48.18 83.81, 66.09 62.29, 116.4 1.81 M28.48 102.94 C47.43 81.47, 65.66 59.33, 116.4 1.81 M39.11 102.9 C61.75 76.22, 85.18 48.14, 124.4 4.79 M39.11 102.9 C65.46 72.33, 91.33 42.63, 124.4 4.79 M49.74 102.87 C71.46 80.04, 91.16 56.98, 130.44 10.04 M49.74 102.87 C81.86 64.96, 114.46 29.68, 130.44 10.04 M60.37 102.83 C75.32 86.18, 93.38 68.02, 133.85 18.31 M60.37 102.83 C77.27 84.06, 94.21 64.27, 133.85 18.31 M71 102.8 C84.72 85.86, 97.73 70.63, 135.3 28.84 M71 102.8 C88.38 82.29, 107.7 61.62, 135.3 28.84 M81.63 102.76 C103.24 77.74, 120.92 54.23, 134.77 41.63 M81.63 102.76 C101.21 81.93, 119.4 58.6, 134.77 41.63 M92.26 102.73 C107.08 85.47, 123.55 65.94, 134.91 53.67 M92.26 102.73 C100.95 92.34, 110.22 80.94, 134.91 53.67 M102.89 102.69 C111.12 90.81, 120.82 82.54, 135.04 65.71 M102.89 102.69 C109.5 95.59, 116.16 86.6, 135.04 65.71 M114.18 101.91 C120.67 93.03, 128.05 89.24, 134.52 78.51 M114.18 101.91 C118.08 96.59, 122.58 91.81, 134.52 78.51" stroke="#ffc9c9" stroke-width="1" fill="none"></path><path d="M25.6 0 C48.58 -0.76, 69.08 1.17, 108.8 0 M25.6 0 C50.23 -0.34, 76.25 0.19, 108.8 0 M108.8 0 C126.5 -1.85, 133.98 7.04, 134.4 25.6 M108.8 0 C126.14 0.49, 133.94 9.52, 134.4 25.6 M134.4 25.6 C135.49 45.01, 135.85 61.3, 134.4 76.8 M134.4 25.6 C135.22 35.88, 134.53 45.36, 134.4 76.8 M134.4 76.8 C134.58 93.27, 124.23 103.93, 108.8 102.4 M134.4 76.8 C133.65 91.89, 126.61 104.05, 108.8 102.4 M108.8 102.4 C79.08 102.34, 46.87 102.78, 25.6 102.4 M108.8 102.4 C83.64 103.41, 61.16 102.99, 25.6 102.4 M25.6 102.4 C6.8 102.38, 0.74 93.9, 0 76.8 M25.6 102.4 C8.09 102.83, 0.79 93.75, 0 76.8 M0 76.8 C-0.07 66.03, 0.12 53.17, 0 25.6 M0 76.8 C0.85 63.13, -0.61 47.86, 0 25.6 M0 25.6 C1.25 9.3, 9.45 -0.57, 25.6 0 M0 25.6 C0.39 7.87, 10.08 -1.17, 25.6 0" stroke="#1e1e1e" stroke-width="2" fill="none"></path></g><g transform="translate(50.38751220703125 359.3000122070312) rotate(0 26.8125 9.199999999999989)"><text x="26.8125" y="14.720312499999999" font-family="Helvetica, Segoe UI Emoji" font-size="16px" fill="#1e1e1e" text-anchor="middle" style="white-space: pre;" direction="ltr" dominant-baseline="alphabetic">entrega</text></g><g stroke-linecap="round"><g transform="translate(77.99996948242188 193.50001220703126) rotate(0 0 61.924988555908214)"><path d="M-0.69 0.84 C-0.74 21.22, -1.25 103, -0.97 123.44 M1.15 0.24 C1.53 21.29, 1.29 104.04, 1.23 124.76" stroke="#1e1e1e" stroke-width="2" fill="none"></path></g></g><mask></mask><g stroke-linecap="round" transform="translate(271.99989318847656 85.8998992919922) rotate(0 67.20001220703125 51.20001983642578)"><path d="M6.16 6.68 C6.16 6.68, 6.16 6.68, 6.16 6.68 M6.16 6.68 C6.16 6.68, 6.16 6.68, 6.16 6.68 M1.04 24.76 C8.99 16.1, 13.01 8.5, 22.04 0.61 M1.04 24.76 C6.88 17.97, 14.05 8.83, 22.04 0.61 M1.18 36.8 C7.7 27.46, 15.42 20.45, 32.67 0.57 M1.18 36.8 C10.81 25.33, 21.24 14, 32.67 0.57 M1.31 48.84 C17.54 32.28, 31.36 15.32, 43.3 0.54 M1.31 48.84 C13.43 34.22, 27.11 20.18, 43.3 0.54 M0.79 61.63 C21.81 36.23, 41.68 11.79, 53.93 0.5 M0.79 61.63 C13.28 47.52, 26.23 33.16, 53.93 0.5 M0.92 73.67 C16.6 56.03, 30.63 36.9, 64.56 0.47 M0.92 73.67 C16.68 55.39, 33.82 35.66, 64.56 0.47 M1.71 84.96 C22.42 63.74, 38.93 40.51, 75.19 0.43 M1.71 84.96 C22.92 62.18, 42.57 37.31, 75.19 0.43 M4.47 93.98 C26.06 70.31, 48.18 45.55, 85.82 0.4 M4.47 93.98 C27.45 68.32, 48.66 43.07, 85.82 0.4 M11.16 98.48 C36.64 68.23, 65.16 35.12, 96.45 0.36 M11.16 98.48 C39.66 65.43, 66.44 34.83, 96.45 0.36 M19.17 101.46 C52.53 63.35, 83.65 25.19, 107.08 0.33 M19.17 101.46 C46.77 69.97, 75.35 36.71, 107.08 0.33 M28.48 102.94 C55.71 71.32, 83.83 40.5, 116.4 1.81 M28.48 102.94 C55.18 74.15, 80.23 46.63, 116.4 1.81 M39.11 102.9 C61.98 78.93, 81.55 54.95, 124.4 4.79 M39.11 102.9 C70.98 64.13, 105.46 26.71, 124.4 4.79 M49.74 102.87 C70.7 79.65, 90.99 55.39, 130.44 10.04 M49.74 102.87 C77.16 73.05, 102.5 41.96, 130.44 10.04 M60.37 102.83 C86.63 75.5, 110.37 43.8, 133.85 18.31 M60.37 102.83 C83.34 77.43, 106.4 51.17, 133.85 18.31 M71 102.8 C87.65 83.34, 100.24 66.31, 135.3 28.84 M71 102.8 C88.68 83.37, 106.33 63.8, 135.3 28.84 M81.63 102.76 C91.86 89.5, 103.89 77.99, 134.77 41.63 M81.63 102.76 C101.37 78.85, 121.75 57.15, 134.77 41.63 M92.26 102.73 C106.64 86.88, 122.81 70.73, 134.91 53.67 M92.26 102.73 C108.28 85.68, 121.37 68.36, 134.91 53.67 M102.89 102.69 C108.46 95.23, 117.18 84.17, 135.04 65.71 M102.89 102.69 C112.12 90.73, 124.01 79.25, 135.04 65.71 M114.18 101.91 C122.46 93.95, 130.31 86.32, 134.52 78.51 M114.18 101.91 C120.98 94.77, 125.09 87.7, 134.52 78.51" stroke="#b2f2bb" stroke-width="1" fill="none"></path><path d="M25.6 0 C44.25 1.18, 59.62 -1.58, 108.8 0 M25.6 0 C54.55 -0.37, 84.78 -0.58, 108.8 0 M108.8 0 C126.81 -0.19, 133.06 9.64, 134.4 25.6 M108.8 0 C126.67 -1.69, 133.57 7.5, 134.4 25.6 M134.4 25.6 C134.93 43.66, 134.02 58.71, 134.4 76.8 M134.4 25.6 C134.77 45.23, 133.27 65.33, 134.4 76.8 M134.4 76.8 C135.37 94.57, 126.31 101.8, 108.8 102.4 M134.4 76.8 C133.3 94.25, 125.13 100.99, 108.8 102.4 M108.8 102.4 C89.47 102.27, 67.86 101.12, 25.6 102.4 M108.8 102.4 C83.71 102.24, 59.09 102.11, 25.6 102.4 M25.6 102.4 C7.21 100.6, -0.03 94.56, 0 76.8 M25.6 102.4 C6.61 103.88, -1.23 93.03, 0 76.8 M0 76.8 C0.53 66.13, -1.41 52.86, 0 25.6 M0 76.8 C-0.22 62.15, -0.39 47.89, 0 25.6 M0 25.6 C-0.43 6.64, 7.33 0.39, 25.6 0 M0 25.6 C-1.28 8.11, 8.4 -1.25, 25.6 0" stroke="#1e1e1e" stroke-width="2" fill="none"></path></g><g transform="translate(286.2663116455078 127.89991912841793) rotate(0 52.93359375 9.199999999999989)"><text x="52.93359375" y="14.720312499999999" font-family="Helvetica, Segoe UI Emoji" font-size="16px" fill="#1e1e1e" text-anchor="middle" style="white-space: pre;" direction="ltr" dominant-baseline="alphabetic">plano_trabalho</text></g><g stroke-linecap="round" transform="translate(271.9999237060547 317.29993896484376) rotate(0 67.20001220703125 51.20001983642578)"><path d="M6.16 6.68 C6.16 6.68, 6.16 6.68, 6.16 6.68 M6.16 6.68 C6.16 6.68, 6.16 6.68, 6.16 6.68 M1.04 24.76 C7.18 18.17, 10.74 10.2, 22.04 0.61 M1.04 24.76 C8.5 16.18, 16.86 6.17, 22.04 0.61 M1.18 36.8 C9.63 25.81, 16.7 17.25, 32.67 0.57 M1.18 36.8 C9.32 29.07, 16.37 20.01, 32.67 0.57 M1.31 48.84 C16.61 30.13, 32.3 11.94, 43.3 0.54 M1.31 48.84 C15.44 33.39, 27.13 18.1, 43.3 0.54 M0.79 61.63 C11.81 47.41, 25.32 33.73, 53.93 0.5 M0.79 61.63 C19.29 39.13, 39.55 17.69, 53.93 0.5 M0.92 73.67 C20.45 50.42, 43.38 26.86, 64.56 0.47 M0.92 73.67 C23.69 46.71, 47.86 20.43, 64.56 0.47 M1.71 84.96 C25.03 60.22, 47.57 33.4, 75.19 0.43 M1.71 84.96 C30.47 50.96, 60.76 18.5, 75.19 0.43 M4.47 93.98 C30.85 61.06, 58.41 30.6, 85.82 0.4 M4.47 93.98 C26.95 68.33, 48.94 43.37, 85.82 0.4 M11.16 98.48 C40.1 67.06, 68.97 35.55, 96.45 0.36 M11.16 98.48 C32.48 75.11, 51.46 51.26, 96.45 0.36 M19.17 101.46 C47.02 71.42, 72.11 39.78, 107.08 0.33 M19.17 101.46 C50.07 65.72, 81.18 30.3, 107.08 0.33 M28.48 102.94 C55.72 68.92, 81.73 40.56, 116.4 1.81 M28.48 102.94 C46.77 79.18, 66.3 57.9, 116.4 1.81 M39.11 102.9 C68.68 72.12, 94.1 38.46, 124.4 4.79 M39.11 102.9 C57.95 81.15, 77.63 57.64, 124.4 4.79 M49.74 102.87 C79.36 67.48, 106.61 36.63, 130.44 10.04 M49.74 102.87 C76.57 74.21, 100.65 44.96, 130.44 10.04 M60.37 102.83 C88.23 73, 113.34 41.33, 133.85 18.31 M60.37 102.83 C85.32 72.51, 112.61 43.53, 133.85 18.31 M71 102.8 C84.69 85.1, 100.31 70.77, 135.3 28.84 M71 102.8 C91.57 77.92, 114.53 51.82, 135.3 28.84 M81.63 102.76 C98.73 84.53, 110.8 65.61, 134.77 41.63 M81.63 102.76 C93.02 89.82, 102.44 77.78, 134.77 41.63 M92.26 102.73 C106.3 86.79, 120.33 73.6, 134.91 53.67 M92.26 102.73 C107.23 85.72, 122.97 66.83, 134.91 53.67 M102.89 102.69 C115.43 89.97, 128.73 73.56, 135.04 65.71 M102.89 102.69 C113.09 90.4, 122.93 80.08, 135.04 65.71 M114.18 101.91 C120.04 92.75, 127.17 88.75, 134.52 78.51 M114.18 101.91 C119.58 95.32, 125.14 90.06, 134.52 78.51" stroke="#b2f2bb" stroke-width="1" fill="none"></path><path d="M25.6 0 C56.65 -0.46, 86.37 -1.07, 108.8 0 M25.6 0 C51.49 0.03, 75.77 0.68, 108.8 0 M108.8 0 C126.57 -1.47, 133.68 7.63, 134.4 25.6 M108.8 0 C126.66 -0.39, 133.85 9.24, 134.4 25.6 M134.4 25.6 C136.06 41.65, 134.64 62.68, 134.4 76.8 M134.4 25.6 C134.53 40.43, 134.26 54.25, 134.4 76.8 M134.4 76.8 C133.44 94.2, 125.22 101.18, 108.8 102.4 M134.4 76.8 C132.99 92.85, 125.56 103, 108.8 102.4 M108.8 102.4 C83.8 101.3, 57.09 100.73, 25.6 102.4 M108.8 102.4 C77.87 101.93, 48.24 103.18, 25.6 102.4 M25.6 102.4 C6.86 103.69, -1.07 93.14, 0 76.8 M25.6 102.4 C6.84 100.46, -0.4 93.97, 0 76.8 M0 76.8 C0.07 59.11, -0.69 40.97, 0 25.6 M0 76.8 C-0.02 62.11, -0.4 49.52, 0 25.6 M0 25.6 C-1.11 8.16, 8.42 -1.09, 25.6 0 M0 25.6 C-2.16 9.57, 9.11 1.81, 25.6 0" stroke="#1e1e1e" stroke-width="2" fill="none"></path></g><g transform="translate(296.06321716308594 359.2999588012695) rotate(0 43.13671875 9.199999999999989)"><text x="43.13671875" y="14.720312499999999" font-family="Helvetica, Segoe UI Emoji" font-size="16px" fill="#1e1e1e" text-anchor="middle" style="white-space: pre;" direction="ltr" dominant-baseline="alphabetic">contribuicao</text></g><g stroke-linecap="round"><g transform="translate(339.99989318847656 189.49995880126954) rotate(0 0 63.425015258789074)"><path d="M-1.04 0.07 C-1.02 21.08, -0.81 105.55, -0.54 126.66 M0.62 -0.94 C0.49 20.2, -1.68 106.61, -1.77 128.1" stroke="#1e1e1e" stroke-width="2" fill="none"></path></g></g><mask></mask><g stroke-linecap="round" transform="translate(513.9999084472656 313.89993743896486) rotate(0 67.20001220703125 50.800010681152344)"><path d="M6.1 6.63 C6.1 6.63, 6.1 6.63, 6.1 6.63 M6.1 6.63 C6.1 6.63, 6.1 6.63, 6.1 6.63 M3.61 21.69 C6.82 16.88, 11.75 10.04, 18.05 5.09 M3.61 21.69 C7.46 17.8, 11.48 12.9, 18.05 5.09 M3.09 34.49 C13.28 25.27, 21.37 12.52, 29.99 3.54 M3.09 34.49 C12.66 21.98, 23.27 9.69, 29.99 3.54 M3.22 46.53 C13.22 32.35, 24.42 18.99, 40.62 3.51 M3.22 46.53 C17.19 30.39, 30.17 15.63, 40.62 3.51 M3.36 58.57 C11.25 45.81, 24.11 35.37, 51.25 3.48 M3.36 58.57 C18.46 42.46, 30.64 27.64, 51.25 3.48 M3.49 70.61 C23.56 48.33, 41.79 26.1, 61.88 3.44 M3.49 70.61 C22.29 49.41, 40.13 28.72, 61.88 3.44 M2.31 84.16 C18.85 64.99, 36.67 41.53, 71.85 4.16 M2.31 84.16 C21.59 63.53, 41.22 41.18, 71.85 4.16 M6.38 91.67 C21.75 72.06, 37.4 53.54, 82.48 4.13 M6.38 91.67 C29.23 63.72, 52.33 37.81, 82.48 4.13 M10.45 99.19 C39.6 66.96, 66.11 39.58, 93.11 4.09 M10.45 99.19 C32.44 75.01, 55.55 48.97, 93.11 4.09 M17.8 102.92 C39.28 75.7, 62.65 49.54, 103.74 4.06 M17.8 102.92 C42.47 75.12, 67.64 45.76, 103.74 4.06 M27.77 103.64 C49.23 76.65, 73.36 50.17, 114.37 4.02 M27.77 103.64 C50.76 78.25, 72.11 52.3, 114.37 4.02 M38.4 103.61 C58.25 77.58, 79.71 54.37, 124.35 4.74 M38.4 103.61 C54.52 84.25, 73.19 63.63, 124.35 4.74 M49.03 103.58 C65.05 84.27, 86.78 62.08, 131.04 9.24 M49.03 103.58 C73.51 77.22, 99.01 47.89, 131.04 9.24 M59.66 103.54 C82.97 74.7, 107.28 47.44, 135.11 16.75 M59.66 103.54 C81.22 80.06, 102.28 56.58, 135.11 16.75 M70.29 103.51 C90.17 77.5, 114.59 55.2, 136.56 27.28 M70.29 103.51 C88.18 83.27, 105.98 62.78, 136.56 27.28 M80.92 103.47 C97.29 82.95, 115.01 64, 136.69 39.32 M80.92 103.47 C101.88 78.08, 123.18 53.72, 136.69 39.32 M91.55 103.44 C107.32 83.56, 124.98 64.79, 136.17 52.12 M91.55 103.44 C105.08 84.9, 120.46 69.08, 136.17 52.12 M102.18 103.4 C113.63 92.53, 120.23 82.95, 136.3 64.16 M102.18 103.4 C111.36 92.93, 119.05 83.4, 136.3 64.16 M112.16 104.12 C117.4 96.54, 122.03 92.54, 136.43 76.2 M112.16 104.12 C118.82 95.12, 126.44 88.14, 136.43 76.2" stroke="#b2f2bb" stroke-width="1" fill="none"></path><path d="M25.4 0 C57.96 -0.85, 89.87 -0.72, 109 0 M25.4 0 C48.79 -0.8, 70.5 -0.31, 109 0 M109 0 C124.86 -1.47, 135.13 10.29, 134.4 25.4 M109 0 C125.73 -1.58, 134.89 6.33, 134.4 25.4 M134.4 25.4 C135.66 37.86, 135.42 47.29, 134.4 76.2 M134.4 25.4 C133.89 42.53, 134.7 58.1, 134.4 76.2 M134.4 76.2 C134.61 93.8, 124.66 101.02, 109 101.6 M134.4 76.2 C132.15 94.08, 128.1 103.83, 109 101.6 M109 101.6 C78.87 101.22, 53.34 103.24, 25.4 101.6 M109 101.6 C85.36 101.59, 59.87 102.65, 25.4 101.6 M25.4 101.6 C8.2 100.42, -0.5 94.35, 0 76.2 M25.4 101.6 C9.7 100.48, -0.63 94.75, 0 76.2 M0 76.2 C-1.3 60.81, -2.37 45.69, 0 25.4 M0 76.2 C0.46 57.61, -0.12 38.78, 0 25.4 M0 25.4 C1.01 7.67, 9.86 -1.04, 25.4 0 M0 25.4 C-0.75 9.92, 9.5 -0.44, 25.4 0" stroke="#1e1e1e" stroke-width="2" fill="none"></path></g><g transform="translate(547.7936706542969 355.49994812011715) rotate(0 33.40625 9.199999999999989)"><text x="33.40625" y="14.720312499999999" font-family="Helvetica, Segoe UI Emoji" font-size="16px" fill="#1e1e1e" text-anchor="middle" style="white-space: pre;" direction="ltr" dominant-baseline="alphabetic">avaliacao</text></g><g stroke-linecap="round"><g transform="translate(145.39996337890625 370.90003662109376) rotate(0 63.49998474121094 0)"><path d="M0.87 -0.2 C21.88 -0.14, 104.98 -0.8, 125.91 -0.8" stroke="#1e1e1e" stroke-width="2.5" fill="none" stroke-dasharray="8 10"></path></g></g><mask></mask><g stroke-linecap="round"><g transform="translate(408.6000061035156 140.50001220703126) rotate(0 52 0)"><path d="M-0.16 -0.5 C17.06 -0.67, 87.06 -1.13, 104.46 -1" stroke="#1e1e1e" stroke-width="2.5" fill="none" stroke-dasharray="8 10"></path></g></g><mask></mask><g stroke-linecap="round"><g transform="translate(402.3999938964844 180.3) rotate(0 59.5 69.70001220703125)"><path d="M0.26 0.43 C20.35 23.61, 99.65 115.79, 119.44 138.9 M-1.07 -0.38 C19 22.97, 98.84 116.73, 118.73 140.17" stroke="#1e1e1e" stroke-width="2" fill="none"></path></g></g><mask></mask><g transform="translate(86.22262573242188 297.09999999999997) rotate(0 5.77734375 9.199999999999989)"><text x="0" y="14.720312499999999" font-family="Helvetica, Segoe UI Emoji" font-size="16px" fill="#1e1e1e" text-anchor="start" style="white-space: pre;" direction="ltr" dominant-baseline="alphabetic">N</text></g><g transform="translate(86.22262573242188 198.09999999999997) rotate(0 4.427083492279053 9.199999999999989)"><text x="0" y="14.720312499999999" font-family="Helvetica, Segoe UI Emoji" font-size="16px" fill="#1e1e1e" text-anchor="start" style="white-space: pre;" direction="ltr" dominant-baseline="alphabetic">1</text></g><g transform="translate(344.4226379394531 296.3000122070312) rotate(0 5.77734375 9.199999999999989)"><text x="0" y="14.720312499999999" font-family="Helvetica, Segoe UI Emoji" font-size="16px" fill="#1e1e1e" text-anchor="start" style="white-space: pre;" direction="ltr" dominant-baseline="alphabetic">N</text></g><g transform="translate(347.4226379394531 193.30001220703122) rotate(0 4.427083492279053 9.199999999999989)"><text x="0" y="14.720312499999999" font-family="Helvetica, Segoe UI Emoji" font-size="16px" fill="#1e1e1e" text-anchor="start" style="white-space: pre;" direction="ltr" dominant-baseline="alphabetic">1</text></g><g transform="translate(414.0226135253906 115.90007934570309) rotate(0 5.77734375 9.199999999999989)"><text x="0" y="14.720312499999999" font-family="Helvetica, Segoe UI Emoji" font-size="16px" fill="#1e1e1e" text-anchor="start" style="white-space: pre;" direction="ltr" dominant-baseline="alphabetic">N</text></g><g transform="translate(497.0226135253906 115.90007934570309) rotate(0 4.427083492279053 9.199999999999989)"><text x="0" y="14.720312499999999" font-family="Helvetica, Segoe UI Emoji" font-size="16px" fill="#1e1e1e" text-anchor="start" style="white-space: pre;" direction="ltr" dominant-baseline="alphabetic">1</text></g><g transform="translate(517.4225769042969 293.50002441406247) rotate(0 5.75 9.199999999999989)"><text x="0" y="14.720312499999999" font-family="Helvetica, Segoe UI Emoji" font-size="16px" fill="#1e1e1e" text-anchor="start" style="white-space: pre;" direction="ltr" dominant-baseline="alphabetic">N</text></g><g transform="translate(411.4225769042969 167.50002441406247) rotate(0 4.427083492279053 9.199999999999989)"><text x="0" y="14.720312499999999" font-family="Helvetica, Segoe UI Emoji" font-size="16px" fill="#1e1e1e" text-anchor="start" style="white-space: pre;" direction="ltr" dominant-baseline="alphabetic">1</text></g><g transform="translate(254.22262573242188 345.8999877929687) rotate(0 5.75 9.199999999999989)"><text x="0" y="14.720312499999999" font-family="Helvetica, Segoe UI Emoji" font-size="16px" fill="#1e1e1e" text-anchor="start" style="white-space: pre;" direction="ltr" dominant-baseline="alphabetic">N</text></g><g transform="translate(152.22262573242188 342.8999877929687) rotate(0 4.427083492279053 9.199999999999989)"><text x="0" y="14.720312499999999" font-family="Helvetica, Segoe UI Emoji" font-size="16px" fill="#1e1e1e" text-anchor="start" style="white-space: pre;" direction="ltr" dominant-baseline="alphabetic">1</text></g></svg>